<svg width="24" height="32" viewBox="0 0 24 32" fill="none" xmlns="http://www.w3.org/2000/svg">
<path d="M0.80244 32C0.61957 32 0.43832 31.9375 0.287817 31.8094C-0.0293734 31.54 -0.0924899 31.0751 0.138929 30.7284L13.0774 11.3999C13.2797 11.0976 13.6859 11.0188 13.9836 11.2242C14.2814 11.4295 14.3591 11.8419 14.1568 12.1441L4.03098 27.2701L21.9474 9.51719H6.76108C6.31928 9.51719 5.95839 9.15247 5.95839 8.70232V0.814862C5.95839 0.366356 6.31766 0 6.76108 0H23.1983C23.522 0 23.8117 0.195507 23.9363 0.497797C24.0625 0.800087 23.9978 1.14672 23.7728 1.38165L18.9421 6.42528C18.6913 6.68814 18.277 6.69308 18.0197 6.43843C17.7608 6.18379 17.7559 5.76322 18.0068 5.502L22.0072 1.32581H7.26599V8.19137H23.1854C23.5123 8.19137 23.8052 8.39017 23.9282 8.69904C24.0512 9.0079 23.98 9.35617 23.7453 9.58946L1.36238 31.7683C1.20702 31.9228 1.00473 32 0.80244 32Z" fill="white"/>
</svg>
